<svg version="1.1" id="Layer_1" xmlns="http://www.w3.org/2000/svg" xmlns:xlink="http://www.w3.org/1999/xlink" x="0px" y="0px"
	 width="100%" viewBox="0 0 711 711" enable-background="new 0 0 711 711" xml:space="preserve">
<path fill="#D40000" opacity="1.000000" stroke="none" 
	d="
M712.000000,546.000000 
	C712.000000,601.315979 712.000000,656.631897 712.000000,711.973938 
	C475.091736,711.973938 238.183487,711.973938 1.000000,711.973938 
	C1.000000,550.309387 1.000000,388.618561 1.467573,226.498199 
	C118.762909,226.071442 235.590683,226.057831 352.418396,226.123138 
	C358.567322,226.126587 364.831451,226.165756 370.845734,227.263290 
	C408.451660,234.125977 434.749786,255.397537 446.495178,291.754028 
	C458.228729,328.074005 449.677979,360.800049 423.083527,388.397125 
	C411.434937,400.484924 396.890930,407.890961 380.747009,412.887909 
	C380.316284,412.908661 380.143524,412.879608 379.973694,412.487915 
	C381.161438,411.387421 382.295898,410.549133 383.538452,409.926575 
	C408.317841,397.510834 421.901825,377.411011 421.553650,349.761505 
	C421.202606,321.882050 407.028992,301.855286 381.555511,290.459747 
	C364.311188,282.745483 346.251038,284.471008 328.561951,288.516296 
	C260.098907,304.173096 217.583237,367.047150 227.933456,436.762573 
	C236.911499,497.235382 291.522644,545.506531 352.566620,545.895813 
	C425.717468,546.362305 498.873260,546.066101 572.026917,546.071350 
	C618.684631,546.074707 665.342285,546.025574 712.000000,546.000000 
z"/>
<path fill="#000000" opacity="1.000000" stroke="none" 
	d="
M379.970734,412.850586 
	C380.143524,412.879608 380.316284,412.908661 381.186829,412.964478 
	C384.031586,412.862915 386.235168,413.004272 388.317352,412.567322 
	C473.837585,394.618164 528.372803,314.707214 514.100464,228.326782 
	C501.813568,153.962891 436.033691,96.479370 360.815277,96.101646 
	C241.376892,95.501854 121.933502,95.902229 2.492234,95.884712 
	C1.994828,95.884636 1.497411,95.959908 1.000000,96.000000 
	C1.000000,64.344498 1.000000,32.688988 1.000000,1.016741 
	C237.905319,1.016741 474.810638,1.016741 712.000000,1.016741 
	C712.000000,139.023193 712.000000,277.046600 711.537720,415.452515 
	C611.247925,415.829529 511.420532,415.826904 411.593109,415.814209 
	C400.761841,415.812836 389.930603,415.753174 379.121643,415.397675 
	C379.115234,414.430542 379.086548,413.786316 379.287750,413.074463 
	C379.517639,413.006897 379.970734,412.850586 379.970734,412.850586 
z"/>
<path fill="#FFFFFF" opacity="1.000000" stroke="none" 
	d="
M379.973694,412.487915 
	C379.970734,412.850586 379.517639,413.006897 378.863098,412.996704 
	C374.373352,413.776764 370.538086,414.567047 366.702850,415.357330 
	C366.734253,415.478394 366.765656,415.599487 366.797058,415.720551 
	C370.897827,415.720551 374.998566,415.720551 379.099335,415.720551 
	C389.930603,415.753174 400.761841,415.812836 411.593109,415.814209 
	C511.420532,415.826904 611.247925,415.829529 711.537720,415.917542 
	C712.000000,459.020905 712.000000,502.041779 712.000000,545.531372 
	C665.342285,546.025574 618.684631,546.074707 572.026917,546.071350 
	C498.873260,546.066101 425.717468,546.362305 352.566620,545.895813 
	C291.522644,545.506531 236.911499,497.235382 227.933456,436.762573 
	C217.583237,367.047150 260.098907,304.173096 328.561951,288.516296 
	C346.251038,284.471008 364.311188,282.745483 381.555511,290.459747 
	C407.028992,301.855286 421.202606,321.882050 421.553650,349.761505 
	C421.901825,377.411011 408.317841,397.510834 383.538452,409.926575 
	C382.295898,410.549133 381.161438,411.387421 379.973694,412.487915 
z"/>
<path fill="#FFFFFF" opacity="1.000000" stroke="none" 
	d="
M1.000000,96.468658 
	C1.497411,95.959908 1.994828,95.884636 2.492234,95.884712 
	C121.933502,95.902229 241.376892,95.501854 360.815277,96.101646 
	C436.033691,96.479370 501.813568,153.962891 514.100464,228.326782 
	C528.372803,314.707214 473.837585,394.618164 388.317352,412.567322 
	C386.235168,413.004272 384.031586,412.862915 381.444824,412.914734 
	C396.890930,407.890961 411.434937,400.484924 423.083527,388.397125 
	C449.677979,360.800049 458.228729,328.074005 446.495178,291.754028 
	C434.749786,255.397537 408.451660,234.125977 370.845734,227.263290 
	C364.831451,226.165756 358.567322,226.126587 352.418396,226.123138 
	C235.590683,226.057831 118.762909,226.071442 1.467573,226.034317 
	C1.000000,182.979111 1.000000,139.958206 1.000000,96.468658 
z"/>
<path fill="#4A4848" opacity="1.000000" stroke="none" 
	d="
M379.121643,415.397675 
	C374.998566,415.720551 370.897827,415.720551 366.797058,415.720551 
	C366.765656,415.599487 366.734253,415.478394 366.702850,415.357330 
	C370.538086,414.567047 374.373352,413.776764 378.633240,413.064270 
	C379.086548,413.786316 379.115234,414.430542 379.121643,415.397675 
z"/>
</svg>