<svg version="1.1" id="Layer_1" xmlns="http://www.w3.org/2000/svg" xmlns:xlink="http://www.w3.org/1999/xlink" x="0px" y="0px"
	 width="100%" viewBox="0 0 1600 1600" enable-background="new 0 0 1600 1600" xml:space="preserve">
<path fill="#FFFFFF" opacity="1.000000" stroke="none" 
	d="
M1601.000000,577.000000 
	C1601.000000,917.166565 1600.992798,1256.833130 1601.093018,1596.499756 
	C1601.094116,1600.248169 1600.250122,1601.093506 1596.500366,1601.092896 
	C1066.167114,1600.995361 535.833984,1600.995483 5.500798,1601.092773 
	C1.753603,1601.093384 0.906355,1600.251587 0.907045,1596.500732 
	C1.004635,1066.167603 1.004621,535.834412 0.907411,5.501275 
	C0.906724,1.755328 1.746596,0.906261 5.498757,0.906952 
	C535.831909,1.004649 1066.165161,1.004612 1596.498291,0.907495 
	C1600.243042,0.906809 1601.096191,1.744730 1601.094116,5.498315 
	C1600.987183,195.832169 1601.000000,386.166077 1601.000000,577.000000 
z"/>
<path fill="#020202" opacity="1.000000" stroke="none" 
	d="
M1506.862183,878.813110 
	C1497.532959,915.257385 1485.506836,950.302490 1470.215454,984.264221 
	C1444.598877,1041.158325 1411.313354,1093.135864 1370.793823,1140.490234 
	C1306.996704,1215.048584 1230.550903,1273.371948 1142.831909,1317.043945 
	C1080.744141,1347.954956 1015.558167,1369.770386 947.480469,1383.054688 
	C892.546631,1393.774170 837.104370,1398.728638 781.175903,1397.692505 
	C730.309998,1396.750366 680.050110,1390.490356 630.390564,1379.302856 
	C603.360535,1373.213379 576.665833,1365.980591 550.379944,1357.249878 
	C547.311646,1356.230713 545.149536,1357.041748 542.592346,1358.576172 
	C508.423187,1379.080200 475.404480,1401.397705 441.627960,1422.518677 
	C399.815643,1448.664673 357.240662,1473.381348 311.603058,1492.419922 
	C276.196930,1507.190308 239.750488,1518.268677 201.533524,1522.595337 
	C182.046066,1524.801636 162.429489,1527.036743 142.961517,1521.935181 
	C116.937263,1515.115723 99.519516,1495.505615 96.545197,1468.887573 
	C95.585449,1460.298462 96.826385,1452.399048 102.076851,1444.361450 
	C124.448868,1410.114502 151.280975,1379.085938 173.116821,1344.470215 
	C194.693527,1310.265259 214.394897,1275.201782 226.345963,1236.299438 
	C231.651337,1219.029785 234.995804,1201.460083 234.105789,1183.262085 
	C233.136658,1163.446167 225.310165,1146.955322 212.560684,1131.664429 
	C148.314270,1054.611084 103.751503,967.471497 80.542267,869.665039 
	C67.233315,813.579590 62.249840,756.685730 65.334373,699.188049 
	C70.750542,598.227295 99.351936,504.139984 150.670349,417.027435 
	C211.174728,314.321777 294.035919,233.986221 395.934265,172.859665 
	C469.136414,128.947342 547.808960,98.900337 631.233398,81.285469 
	C697.037415,67.391098 763.648376,62.167801 830.794983,65.286957 
	C945.563904,70.618317 1054.349976,98.957848 1156.376221,152.114395 
	C1226.696167,188.751633 1289.691650,235.371918 1344.515137,292.768066 
	C1416.004639,367.612183 1468.147461,453.948883 1498.436523,553.180664 
	C1509.134155,588.227356 1516.568237,623.969788 1520.728760,660.347412 
	C1525.052612,698.153687 1525.964722,736.056335 1523.245361,774.069214 
	C1520.722778,809.329651 1515.215210,844.071289 1506.862183,878.813110 
z"/>
<path fill="#FFFFFF" opacity="1.000000" stroke="none" 
	d="
M1383.410645,1014.389771 
	C1351.757935,1068.201416 1312.711548,1115.525024 1266.746826,1157.135132 
	C1188.692627,1227.794434 1098.497803,1276.621460 997.581604,1305.926880 
	C956.487427,1317.860474 914.601196,1325.783569 872.018616,1330.246704 
	C825.975708,1335.072632 779.896667,1335.601440 733.809570,1331.811890 
	C668.550537,1326.445801 605.152100,1312.316284 543.664368,1289.779541 
	C539.581421,1288.283081 536.624817,1288.436768 532.763794,1290.828003 
	C494.247772,1314.681030 455.572449,1338.277222 416.917725,1361.906006 
	C383.390167,1382.400757 349.574677,1402.404785 314.182495,1419.559204 
	C281.264679,1435.514160 247.489944,1449.208008 211.434280,1456.453003 
	C197.427399,1459.267578 183.310425,1461.228638 167.988358,1461.068970 
	C170.823410,1457.209351 173.182495,1453.934204 175.606384,1450.707642 
	C209.163818,1406.038696 240.580994,1360.005249 265.433533,1309.788818 
	C278.422913,1283.542725 288.957855,1256.413208 294.405609,1227.525269 
	C301.232239,1191.325928 299.238739,1156.100708 282.925354,1122.340820 
	C277.106384,1110.298828 268.168915,1100.716064 259.868866,1090.579834 
	C199.599258,1016.977783 158.352127,934.158813 139.069992,840.758118 
	C128.258545,788.388733 125.222130,735.495728 130.127106,682.269958 
	C139.560410,579.905396 174.802612,487.011749 234.748734,403.685272 
	C310.576630,298.282715 410.724518,224.293320 531.059448,176.917175 
	C581.600403,157.019073 633.857605,143.538727 687.621521,135.772141 
	C739.740784,128.243103 792.026917,126.214485 844.580872,129.711655 
	C922.264038,134.881042 997.246155,151.787674 1069.296997,181.252747 
	C1145.547852,212.435455 1214.156860,255.741928 1274.338623,312.152435 
	C1331.417603,365.654633 1376.989746,427.568146 1409.978882,498.585114 
	C1430.979858,543.794800 1445.650757,591.046631 1453.816528,640.202515 
	C1461.963135,689.242737 1463.438599,738.549805 1458.289795,788.057007 
	C1449.956665,868.181091 1424.965576,942.785400 1384.595337,1012.360474 
	C1384.263184,1012.933167 1383.957520,1013.521362 1383.410645,1014.389771 
z"/>
<path fill="#020202" opacity="1.000000" stroke="none" 
	d="
M1126.070557,919.081177 
	C1111.269775,939.885132 1095.421143,959.371155 1077.864624,977.421143 
	C1075.459839,979.893555 1076.113892,980.785217 1078.412842,982.593140 
	C1112.624268,1009.497498 1149.402588,1032.242554 1188.590942,1051.153442 
	C1200.964966,1057.124756 1207.712036,1067.250366 1207.443359,1080.982300 
	C1207.184082,1094.225464 1200.506348,1104.055420 1188.347534,1109.556030 
	C1179.193237,1113.697388 1169.895020,1113.111206 1160.857910,1108.749023 
	C1120.191772,1089.119629 1081.982544,1065.526855 1046.398682,1037.710815 
	C1041.157959,1033.614136 1035.937134,1029.484375 1030.866333,1025.182007 
	C1028.640747,1023.293762 1027.187866,1023.153442 1024.707031,1025.111084 
	C991.054810,1051.665649 954.626770,1073.661133 915.565796,1091.342163 
	C898.641296,1099.002930 881.270020,1105.519897 863.832825,1111.832886 
	C847.136230,1117.877930 828.876038,1108.521118 823.329407,1091.699219 
	C817.802673,1074.937866 827.192566,1056.770264 844.251221,1051.580566 
	C869.113220,1044.017090 892.706970,1033.463013 915.717285,1021.528076 
	C937.428711,1010.266907 957.982422,997.150391 977.752319,982.758850 
	C980.702942,980.610901 980.727295,979.550537 978.219116,976.988098 
	C949.747681,947.899963 924.021545,916.575806 902.079895,882.242859 
	C897.640259,875.296021 892.739197,868.538208 891.827637,859.828857 
	C890.286194,845.101318 898.564819,831.134583 912.157349,826.197632 
	C926.263733,821.074036 941.864197,825.889832 949.751831,838.703064 
	C957.331055,851.015198 965.025513,863.218933 973.594360,874.863281 
	C989.810242,896.899170 1007.784302,917.409119 1027.015869,936.857300 
	C1029.609985,939.480591 1030.723755,938.588501 1032.736694,936.504333 
	C1074.753540,893.001099 1106.135254,842.834473 1127.079956,786.125244 
	C1129.823853,778.695984 1132.278442,771.159973 1134.869995,763.665039 
	C1133.008545,762.515991 1131.340088,763.003723 1129.776733,763.003357 
	C1038.625488,762.981506 947.474182,762.986206 856.322937,763.003662 
	C837.675659,763.007202 823.053894,748.896667 823.212891,730.984314 
	C823.370789,713.196411 837.779968,699.324768 856.164368,699.320251 
	C908.155640,699.307434 960.146912,699.277710 1012.137939,699.395752 
	C1015.873962,699.404236 1017.157227,698.690735 1017.107117,694.612915 
	C1016.865356,674.952576 1017.334839,655.279846 1016.885132,635.626770 
	C1016.561279,621.474854 1027.072998,604.015503 1048.587280,603.148499 
	C1066.121826,602.442017 1080.133301,617.070190 1080.248779,635.300659 
	C1080.373291,654.963257 1080.417358,674.628967 1080.167114,694.289185 
	C1080.112305,698.602539 1081.467529,699.414917 1085.479614,699.404175 
	C1135.804077,699.269409 1186.129150,699.336670 1236.453979,699.302063 
	C1249.965820,699.292786 1260.916748,703.991638 1267.481079,716.338562 
	C1278.511230,737.085266 1264.130981,761.942078 1240.487183,762.825256 
	C1228.671875,763.266663 1216.823853,763.136780 1204.999878,762.867371 
	C1201.298096,762.783081 1199.927979,764.057251 1198.974609,767.413879 
	C1183.456665,822.048401 1158.785156,872.302734 1126.070557,919.081177 
z"/>
<path fill="#020202" opacity="1.000000" stroke="none" 
	d="
M605.918762,552.092529 
	C630.969666,624.534973 655.920715,696.596313 680.912109,768.643616 
	C686.834045,785.715942 692.843262,802.758545 698.899963,819.783569 
	C705.064453,837.111572 696.207275,855.529175 678.915955,861.131836 
	C661.410645,866.803833 644.200500,856.722534 638.289307,838.846375 
	C626.638977,803.614380 614.148804,768.660339 602.093933,733.561218 
	C601.328613,731.333069 600.095642,730.966553 598.041138,730.968323 
	C549.210876,731.010742 500.380646,731.020325 451.550537,730.945557 
	C449.095154,730.941772 448.097137,731.840820 447.354126,734.041565 
	C435.374603,769.524597 422.101105,804.563599 410.818512,840.285217 
	C405.418304,857.382629 387.356049,866.675537 370.227020,860.978455 
	C353.315704,855.353760 344.779358,836.848328 350.784546,819.823303 
	C364.732483,780.280334 378.634216,740.719055 392.206207,701.045959 
	C426.129639,601.882446 460.889771,503.008972 495.016571,403.916138 
	C499.790222,390.055084 511.009064,381.761078 524.376221,381.756104 
	C538.582214,381.750824 549.914062,390.230621 554.887634,404.592102 
	C571.870117,453.630005 588.851746,502.668213 605.918762,552.092529 
z"/>
<path fill="#FDFDFD" opacity="1.000000" stroke="none" 
	d="
M516.999878,667.760925 
	C502.510284,667.760925 488.520416,667.712524 474.531372,667.801514 
	C471.713959,667.819397 470.106049,667.797913 471.394196,664.098999 
	C489.095428,613.269775 506.682495,562.400757 524.305542,511.544342 
	C524.341370,511.441101 524.494995,511.378693 525.086548,510.889984 
	C527.258850,517.121521 529.372192,523.150696 531.463318,529.187683 
	C546.861084,573.640076 562.200500,618.112854 577.733826,662.517822 
	C579.258545,666.876526 578.851379,667.952209 573.955994,667.877380 
	C555.141113,667.589783 536.319153,667.760925 516.999878,667.760925 
z"/>
</svg>